Coordinates
version=1
nRows=19
nColumns=24
inDegrees=yes

Units are S.I. units (second, meters, Newtons, ...)
Angles are in degrees.

endheader
time	pelvis_tilt	pelvis_list	pelvis_rotation	pelvis_tx	pelvis_ty	pelvis_tz	hip_flexion_r	hip_adduction_r	hip_rotation_r	knee_angle_r	ankle_angle_r	subtalar_angle_r	mtp_angle_r	hip_flexion_l	hip_adduction_l	hip_rotation_l	knee_angle_l	ankle_angle_l	subtalar_angle_l	mtp_angle_l	lumbar_extension	lumbar_bending	lumbar_rotation
      4.24500000	     -9.11610075	      6.42431353	    357.18847543	      0.67374127	      1.37058575	     -1.06785737	     10.00650038	     -4.76351096	      5.50186784	    -41.15263418	     -1.18858300	     -8.90555549	     24.42270291	     26.75070718	      7.92803781	     -2.00926238	    -11.23287576	     -9.04434544	     -3.08258761	     26.92392389	     -6.28163591	     -5.36534380	     12.08011296
      4.25000000	     -8.99658368	      6.45405945	    357.30408401	      0.67863614	      1.37120071	     -1.06892753	     10.52561319	     -4.92789878	      5.27278899	    -42.46294741	     -2.01146624	     -8.66560984	     25.80937253	     26.42166602	      8.13270474	     -1.78097643	    -11.43437669	     -8.73845266	     -3.19523723	     26.62148792	     -6.37233615	     -5.36597317	     11.87208311
      4.25500000	     -8.83468507	      6.48284235	    357.44102596	      0.68358711	      1.37188442	     -1.07000712	     10.96946440	     -5.10367686	      5.02191716	    -43.68797035	     -2.73314378	     -8.44042816	     27.10842306	     26.00256351	      8.34651310	     -1.56636672	    -11.56059434	     -8.45036401	     -3.25331286	     26.36268260	     -6.50044025	     -5.36511783	     11.63191366
      4.26000000	     -8.70298211	      6.50329885	    357.58918471	      0.68857157	      1.37255397	     -1.07106863	     11.43136806	     -5.27074805	      4.77972018	    -44.86830760	     -3.18984574	     -7.99368222	     27.91761440	     25.58634763	      8.54580471	     -1.36763908	    -11.63279068	     -8.17306057	     -3.25450923	     26.27028446	     -6.59003482	     -5.33229806	     11.28096892
      4.26500000	     -8.56883485	      6.46542702	    357.74441772	      0.69351417	      1.37327984	     -1.07217890	     11.86477677	     -5.37334645	      4.53744353	    -45.92654691	     -3.79142468	     -7.95465453	     29.26485633	     25.15788953	      8.69241953	     -1.15068827	    -11.70263697	     -7.86852202	     -3.29229819	     25.98113775	     -6.66824003	     -5.25430783	     11.08619428
      4.27000000	     -8.41771791	      6.43927119	    357.90942567	      0.69844295	      1.37400967	     -1.07324082	     12.26898068	     -5.49428552	      4.27933045	    -46.94912856	     -4.04365531	     -7.66249651	     29.97002003	     24.69584484	      8.84170581	     -0.98334289	    -11.73793267	     -7.58389904	     -3.22020733	     25.91344526	     -6.77331297	     -5.17995077	     10.79282086
      4.27500000	     -8.29322400	      6.40462522	    358.05954765	      0.70336789	      1.37474278	     -1.07426290	     12.68796458	     -5.59053147	      4.06654991	    -47.88562020	     -4.26636788	     -7.58499525	     30.87406178	     24.24354163	      8.97073878	     -0.79440501	    -11.74266118	     -7.26419001	     -3.15843163	     25.74024020	     -6.82799845	     -5.10684728	     10.56985797
      4.28000000	     -8.17650040	      6.35595057	    358.19189505	      0.70823680	      1.37548473	     -1.07523399	     13.11406229	     -5.66655161	      3.86989009	    -48.77344809	     -4.30164656	     -7.34384135	     31.34167502	     23.80010384	      9.06582349	     -0.67203358	    -11.73994641	     -6.97646059	     -3.03819897	     25.70441441	     -6.88348030	     -5.00353555	     10.30764568
      4.28500000	     -8.06356357	      6.31384256	    358.30899517	      0.71307094	      1.37623076	     -1.07613018	     13.53684212	     -5.73537360	      3.70288727	    -49.59743572	     -4.18681514	     -7.18264729	     31.71382967	     23.35281058	      9.15310090	     -0.55204910	    -11.71837743	     -6.69067781	     -2.90593307	     25.68242900	     -6.92902947	     -4.91848641	     10.06258337
      4.29000000	     -7.96467304	      6.23477777	    358.40676697	      0.71778411	      1.37697648	     -1.07701574	     13.97932691	     -5.75828005	      3.55259786	    -50.35407311	     -4.07699566	     -7.06418895	     32.15496915	     22.94693370	      9.19002008	     -0.45836772	    -11.74430895	     -6.35460456	     -2.73768142	     25.56216142	     -6.97497101	     -4.78612412	      9.86212125
      4.29500000	     -7.86651607	      6.17438725	    358.47382801	      0.72249084	      1.37772883	     -1.07778269	     14.41746813	     -5.77964842	      3.44808982	    -51.05206816	     -3.80923619	     -6.98354149	     32.38732594	     22.52649126	      9.22406537	     -0.38697413	    -11.73260797	     -6.05405498	     -2.57261782	     25.53022799	     -7.00775954	     -4.68581648	      9.67593690
      4.30000000	     -7.78065425	      6.09694825	    358.52371897	      0.72711365	      1.37848587	     -1.07851476	     14.86992572	     -5.77314419	      3.36144420	    -51.68703129	     -3.50192758	     -6.91016718	     32.56349696	     22.13547433	      9.22918995	     -0.33012376	    -11.74740565	     -5.73026397	     -2.37976284	     25.46884947	     -7.03633824	     -4.56485231	      9.51510829
      4.30500000	     -7.73795127	      6.00450313	    358.55294600	      0.73166878	      1.37920375	     -1.07920034	     15.37378097	     -5.73509340	      3.30101442	    -52.26864895	     -3.15397692	     -6.87513585	     32.64462750	     21.80913070	      9.20471319	     -0.28887113	    -11.79665237	     -5.34807228	     -2.13126435	     25.25228687	     -7.01556185	     -4.43000685	      9.40934002
      4.31000000	     -7.65155181	      5.92530889	    358.56493419	      0.73615956	      1.37996027	     -1.07981485	     15.82670660	     -5.70358069	      3.25435285	    -52.78697447	     -2.73172050	     -6.83414440	     32.64203222	     21.43188524	      9.18485248	     -0.26009470	    -11.82403644	     -5.03776976	     -1.93277677	     25.17096821	     -7.06008965	     -4.30994502	      9.27321173
      4.31500000	     -7.58935567	      5.85640002	    358.56038265	      0.74062569	      1.38068858	     -1.08037771	     16.30757942	     -5.67247670	      3.22754650	    -53.25311638	     -2.28755029	     -6.81008206	     32.59025918	     21.08229279	      9.16522178	     -0.23953249	    -11.84978877	     -4.72446451	     -1.73524203	     25.10587728	     -7.07334044	     -4.20121494	      9.14404529
      4.32000000	     -7.53837610	      5.76257384	    358.55402130	      0.74503289	      1.38140928	     -1.08093082	     16.79301483	     -5.60731537	      3.20188061	    -53.65395117	     -1.81612413	     -6.77890216	     32.42455264	     20.75321111	      9.11859988	     -0.19846666	    -11.89108216	     -4.38597694	     -1.52579741	     24.97797392	     -7.08012469	     -4.06652049	      9.05762694
      4.32500000	     -7.48963224	      5.67635975	    358.53226872	      0.74940260	      1.38212673	     -1.08143400	     17.27938632	     -5.53954815	      3.19258442	    -53.99835376	     -1.32929592	     -6.76276536	     32.17570013	     20.42423499	      9.07297600	     -0.16642870	    -11.92209019	     -4.07265745	     -1.35325177	     24.81453524	     -7.08926823	     -3.94093290	      8.97380099
      4.33000000	     -7.42452738	      5.57484583	    358.51786731	      0.75377855	      1.38287125	     -1.08193903	     17.72666126	     -5.45750617	      3.16204371	    -54.26575150	     -0.81631973	     -6.73928554	     31.82542513	     20.06445639	      9.01615822	     -0.11232481	    -11.93148654	     -3.79045067	     -1.20004924	     24.61734667	     -7.10683048	     -3.80247042	      8.92290777
      4.33500000	     -7.35843488	      5.47608197	    358.48586491	      0.75810968	      1.38362149	     -1.08238512	     18.17150981	     -5.36136453	      3.16140377	    -54.46119241	     -0.41794792	     -6.88130133	     31.80586199	     19.69417954	      8.95641984	     -0.03031076	    -11.90772903	     -3.60062891	     -1.22460776	     24.61904392	     -7.13460508	     -3.68387104	      8.91432340
